<svg xmlns="http://www.w3.org/2000/svg" width="20" height="20" fill="none"><rect width="20" height="20" fill="#36414D" rx="4"/><path fill="#fff" d="M12.135 15H7.129c-.021-.006-.042-.017-.064-.018a4.45 4.45 0 0 1-1.694-.465c-1.69-.84-2.668-2.693-2.29-4.54.32-1.563 1.278-2.635 2.81-3.215.666-.252 1.364-.306 2.072-.22a.271.271 0 0 0 .227-.071c.249-.209.494-.425.763-.606.806-.542 1.713-.805 2.686-.86.384-.021.764.026 1.14.09 2.186.378 3.897 2.13 4.17 4.26.015.12.034.239.051.358v.542c-.006.024-.015.048-.019.073-.032.229-.05.46-.097.687-.248 1.173-.866 2.133-1.825 2.883a5.048 5.048 0 0 1-2.442 1.036c-.16.023-.321.044-.482.066ZM9.154 6.889c.047.026.074.041.1.057.222.13.449.252.665.39.092.06.156.06.25.006.902-.522 1.849-.582 2.83-.241 1.172.407 2.322 1.768 2.013 3.445a3.224 3.224 0 0 1-3.876 2.53 3.108 3.108 0 0 1-1.588-.853c-.615-.602-1.235-1.201-1.852-1.8a1.43 1.43 0 0 0-.136-.12.483.483 0 0 0-.67.082c-.164.205-.143.434.062.63.71.682 1.42 1.365 2.136 2.041.16.151.335.293.523.409.954.587 1.996.737 3.088.51 2.396-.497 3.825-2.853 3.142-5.128-.426-1.422-1.853-2.743-3.628-2.87-.929-.067-1.79.112-2.581.59-.16.096-.31.207-.478.321Zm-.336 7.161c-.013-.018-.016-.025-.022-.03l-.901-.829a.308.308 0 0 0-.214-.077c-.247-.007-.498.002-.741-.038-1.5-.241-2.406-1.83-1.834-3.203.657-1.577 2.784-1.994 4.021-.79.446.435.891.871 1.34 1.302.063.06.142.114.224.14a.486.486 0 0 0 .526-.193c.117-.184.104-.389-.055-.545-.502-.492-.995-.994-1.52-1.463-1.175-1.05-2.657-1.083-3.9-.433a3.21 3.21 0 0 0-1.599 3.804c.424 1.386 1.713 2.337 3.203 2.358.464.007.927.002 1.391.002.023 0 .046-.003.08-.005Z"/></svg>