<svg width="20" height="20" fill="none" xmlns="http://www.w3.org/2000/svg"><g filter="url(#a)" fill="#fff"><path d="m13.999 7.113-3.967-2.254a.667.667 0 0 0-.666 0 .667.667 0 0 0-.347.6v4.514a.667.667 0 0 0 1.033.6L14 8.333a.666.666 0 0 0 0-1.207v-.013Z"/><path d="M16.665 1h-11a1.333 1.333 0 0 0-1.333 1.333v11a1.333 1.333 0 0 0 1.334 1.333h11a1.333 1.333 0 0 0 1.333-1.333v-11A1.333 1.333 0 0 0 16.665 1Zm-.093 12.233a.367.367 0 0 1-.24.1H5.999a.333.333 0 0 1-.333-.334V2.667a.333.333 0 0 1 .333-.334h10.333a.333.333 0 0 1 .333.334v10.332a.34.34 0 0 1-.093.234Z"/><path d="M15 15.665H3.666a.333.333 0 0 1-.334-.333V3.999a.667.667 0 1 0-1.333 0v11.666A1.333 1.333 0 0 0 3.333 17H15a.667.667 0 0 0 0-1.334Z"/></g><defs><filter id="a" x="0" y="0" width="19.998" height="19.998" filterUnits="userSpaceOnUse" color-interpolation-filters="sRGB"><feFlood flood-opacity="0" result="BackgroundImageFix"/><feColorMatrix in="SourceAlpha" values="0 0 0 0 0 0 0 0 0 0 0 0 0 0 0 0 0 0 127 0" result="hardAlpha"/><feOffset dy="1"/><feGaussianBlur stdDeviation="1"/><feComposite in2="hardAlpha" operator="out"/><feColorMatrix values="0 0 0 0 0 0 0 0 0 0 0 0 0 0 0 0 0 0 0.7 0"/><feBlend in2="BackgroundImageFix" result="effect1_dropShadow_1562_22781"/><feBlend in="SourceGraphic" in2="effect1_dropShadow_1562_22781" result="shape"/></filter></defs></svg>