<svg width="20" height="22" fill="none" xmlns="http://www.w3.org/2000/svg"><path d="M18.468 2.034c-.705-.685-1.831-.685-2.693-.235a20.219 20.219 0 0 0-4.586 3.394l.305-3.459s.163-1.243-1.2-1.65c-.842-.25-1.744.071-2.382.814A22.443 22.443 0 0 0 4.84 5.822c-.156-.565-.197-.858-.386-1.415-.462-1.336-1.608-1.358-2.26-1.108-.644.243-1.587 1.094-1.017 2.473.719 1.758 1.648 3.408 2.47 5.109 0 .007.006.007.006.014.17.35.53.593.95.622.61.043 1.18-.357 1.357-.986.48-1.708 1.172-3.237 2.08-4.731l.326 3.63v.014c.04.393.278.757.651.95a1.243 1.243 0 0 0 1.58-.393A17.21 17.21 0 0 1 14.18 6.4a673.202 673.202 0 0 1-.963 3.508c-.15.629.217 1.258.773 1.486.556.229 1.235.05 1.54-.528 0 0 2.435-5.002 3.256-6.782.218-.428.455-1.293-.319-2.05ZM2.267 21v-3.252H3.43v-.75H.239v.75h1.17V21h.858Zm4.542 0v-.738h-1.98v-.93h1.938V18.6H4.829v-.87h1.98v-.732H3.977V21h2.832Zm4.398 0-1.542-4.002H8.597L7.049 21h.936l.252-.69h1.788l.252.69h.93Zm-1.416-1.428H8.465l.666-1.836.66 1.836ZM15.915 21v-4.002h-1.2l-.972 2.496-.972-2.496h-1.194V21h.852v-2.88L13.557 21h.372l1.128-2.88V21h.858Zm.518-.564c.378.378.93.636 1.698.636 1.08 0 1.602-.552 1.602-1.284 0-.888-.84-1.086-1.5-1.236-.462-.108-.798-.192-.798-.462 0-.24.204-.408.588-.408.39 0 .822.138 1.146.438l.474-.624c-.396-.366-.924-.558-1.56-.558-.942 0-1.518.54-1.518 1.206 0 .894.84 1.074 1.494 1.224.462.108.81.21.81.51 0 .228-.228.45-.696.45-.552 0-.99-.246-1.272-.54l-.468.648Z" fill="#323232"/></svg>