<svg width="18" height="12" fill="none" xmlns="http://www.w3.org/2000/svg"><path d="M17.468 2.034c-.705-.685-1.831-.685-2.693-.235a20.219 20.219 0 0 0-4.586 3.394l.305-3.459s.163-1.243-1.2-1.65c-.842-.25-1.744.071-2.382.814A22.443 22.443 0 0 0 3.84 5.822c-.156-.565-.197-.858-.386-1.415-.462-1.336-1.608-1.358-2.26-1.108C.55 3.542-.394 4.393.176 5.772.895 7.53 1.824 9.18 2.646 10.88c0 .007.006.007.006.014.17.35.53.593.95.622.61.043 1.18-.357 1.357-.986C5.44 8.823 6.132 7.294 7.04 5.8l.326 3.63v.014c.04.393.278.757.651.95a1.243 1.243 0 0 0 1.58-.393A17.21 17.21 0 0 1 13.18 6.4a673.202 673.202 0 0 1-.963 3.508c-.15.629.217 1.258.773 1.486.556.229 1.235.05 1.54-.528 0 0 2.435-5.002 3.256-6.782.218-.428.455-1.293-.319-2.05Z" fill="#323232"/></svg>