<svg width="13" height="12" fill="none" xmlns="http://www.w3.org/2000/svg"><path d="M4.531 9.144h-1.21a.174.174 0 0 1-.123-.05.17.17 0 0 1-.05-.121v-7.7a.68.68 0 0 0-.203-.484.696.696 0 0 0-.978 0 .68.68 0 0 0-.203.484v7.7a.17.17 0 0 1-.05.12.174.174 0 0 1-.123.05H.381a.349.349 0 0 0-.319.213.325.325 0 0 0 .076.37l2.076 2.053a.334.334 0 0 0 .484 0l2.076-2.053a.328.328 0 0 0 .103-.37.343.343 0 0 0-.346-.212zm3.005-5.699h1.21c.046 0 .09.018.123.05a.17.17 0 0 1 .05.12v7.7a.68.68 0 0 0 .203.485.695.695 0 0 0 .978 0 .68.68 0 0 0 .203-.484v-7.7a.17.17 0 0 1 .05-.121.174.174 0 0 1 .123-.05h1.21a.348.348 0 0 0 .319-.213.326.326 0 0 0-.076-.37L9.853.81A.332.332 0 0 0 9.48.733a.332.332 0 0 0-.11.077L7.294 2.863a.328.328 0 0 0-.104.37.343.343 0 0 0 .346.212z" fill="#36414D"/></svg>