<svg xmlns="http://www.w3.org/2000/svg" viewBox="0 0 480.9 108" style="enable-background:new 0 0 480.9 108" xml:space="preserve"><circle cx="54" cy="54" r="54" style="fill:#ffe121"/><path d="M51.57 25.7v36.37c-10.043-.236-17.994-8.568-17.758-18.612.227-9.711 8.046-17.53 17.758-17.758zm4.85 56.6V45.93c10.043.236 17.994 8.568 17.758 18.612-.227 9.711-8.046 17.53-17.758 17.758z"/><circle cx="65" cy="34.27" r="8.57"/><circle cx="43" cy="73.73" r="8.57"/><path d="M147.36 66.17c0-3 1.81-5 4.47-5a4.44 4.44 0 0 1 4.66 4.209v.001a5.447 5.447 0 0 1-.58 2.59 11.869 11.869 0 0 0 6.73 1.81c4.66 0 7.63-2.07 7.63-5.76 0-3.49-3.56-5.18-7.83-6.67-7.89-2.85-13.46-5.37-13.46-13.26 0-6.79 5.5-12.1 14.11-12.1 8 0 14.11 4.08 14.11 9.19 0 3-1.88 4.79-4.34 4.79a4.41 4.41 0 0 1-4.653-4.152c-.003-.059-.006-.118-.007-.178a3.824 3.824 0 0 1 .45-2 10.722 10.722 0 0 0-5.63-1.29c-4.21 0-6.66 2.14-6.66 5.24 0 3.49 3.56 5 7.83 6.6 7.64 2.72 13.39 5.37 13.39 13.27 0 8.09-6.28 12.68-15 12.68-8.43-.08-15.22-4.8-15.22-9.97zm39.54 5.75a9.135 9.135 0 0 1-1-4.46V52.9h-5.48v-6h5.5v-6l7-3v9h8.61v6h-8.61v13.2a3.93 3.93 0 0 0 .45 2.07 3.17 3.17 0 0 0 3 1.36 14.27 14.27 0 0 0 5.57-1.49l-.58 6.08a15.056 15.056 0 0 1-6.79 1.68c-3.46.01-6.25-1.16-7.67-3.88zm18.31-10.8c0-7.77 5.82-14.69 15.08-14.69s15.08 6.79 15.08 14.69-5.82 14.69-15.08 14.69-15.08-6.81-15.08-14.69zm22.91 0c0-5.18-3.24-8.8-7.83-8.8s-7.83 3.62-7.83 8.8 3.24 8.8 7.83 8.8 7.83-3.63 7.83-8.8zm35.98-10.03a4.32 4.32 0 0 1-4.21 4.4 4.42 4.42 0 0 1-4.14-2.52 11.778 11.778 0 0 0-5.63 5.37v11.13h4.92v5.82h-16.18v-5.82h4.21V52.9h-4.21v-6h11v6.41c2.39-3.82 5.37-6.92 9-6.92s5.24 2.17 5.24 4.7zm9.89 37.08c-3.75 0-6.08-2.2-6.08-4.47a3.361 3.361 0 0 1 3.49-3.62 3.24 3.24 0 0 1 3.11 2.14 4.203 4.203 0 0 0 2.26-1.68c.5-.69.932-1.427 1.29-2.2l2.14-4.47-10.1-21h-3.49v-6h14.62v5.63h-4.14l6.53 14.95 6.6-14.95h-4.4v-5.63h14.6v6h-3.43L283.69 81a16.406 16.406 0 0 1-2.2 3.43 9.823 9.823 0 0 1-7.5 3.74zm37.15-15.6-1.55 2.85h-4.79V33.88h-4.27v-6h11.32v22.13a11.66 11.66 0 0 1 8.35-3.62c7.51 0 13.14 6 13.14 14.56 0 8.22-6 14.82-13.59 14.82a12.928 12.928 0 0 1-8.61-3.2zm14.95-11.52c0-5.44-3.37-8.54-7.51-8.54a10.089 10.089 0 0 0-6.73 2.85v12.17a11.614 11.614 0 0 0 6.73 2.2c3.95-.01 7.5-3.05 7.5-8.68h.01zm10.21 8.42h4.4V33.88h-4.4v-6h11.45v41.54h4.21v5.82H336.3v-5.77zm18.6-8.35c0-7.77 5.82-14.69 15.08-14.69s15.08 6.79 15.08 14.69-5.82 14.69-15.08 14.69S354.9 69 354.9 61.12zm22.91 0c0-5.18-3.24-8.8-7.83-8.8s-7.83 3.62-7.83 8.8 3.24 8.8 7.83 8.8 7.82-3.63 7.82-8.8h.01zm11.33-.26c.016-7.935 6.425-14.375 14.36-14.43 7.77 0 12.88 5 12.88 9.51a4.46 4.46 0 0 1-4.53 4.79 4.31 4.31 0 0 1-4.27-4.27 3.909 3.909 0 0 1 .91-2.39 6.469 6.469 0 0 0-5-1.94c-3.24 0-7.25 2.65-7.25 8.87 0 5.44 4.14 8.86 9.19 8.86 3.43 0 6.41-1 10.09-3l-.58 6.34a18.752 18.752 0 0 1-10.09 2.59c-8.98.02-15.71-5.79-15.71-14.93zM420 69.47h4.21V33.88H420v-6h11.26v31.77l8.28-7.12h-3.95V46.9h16.76v6h-5.24l-6.6 5.56 7.18 10.87h4.66v6h-8.86l-8.15-12.75-4.08 3.42v3.62h3.56v5.69H420v-5.84zM476.57 57c-2.26 0-3.82-1.36-3.82-3.49-.024-.414.019-.83.13-1.23a11.354 11.354 0 0 0-4-.71c-3.17 0-4.72 1.42-4.72 2.91s1.62 2.46 6 3.62c6.79 1.81 10.74 3.49 10.74 8.61 0 6-5.57 9.12-12 9.12-4.33 0-9-1.55-10.87-3.43a4.999 4.999 0 0 1-1.62-3.82 3.73 3.73 0 0 1 3.639-3.819l.111-.001a3.649 3.649 0 0 1 3.82 3.75c-.011.39-.055.778-.13 1.16 1.633.615 3.365.924 5.11.91 2.85 0 5.18-1 5.18-3 0-1.42-1.23-2.26-5.56-3.43-7.83-2.07-11.13-3.95-11.13-8.8 0-4.4 3.62-9 11.58-9 3.43 0 7.57 1.29 9.51 3.24a5.001 5.001 0 0 1 1.55 3.62 3.49 3.49 0 0 1-3.52 3.79z"/></svg>